<?xml version="1.0" encoding="utf-8"?>
<!-- Generator: Adobe Illustrator 17.0.2, SVG Export Plug-In . SVG Version: 6.00 Build 0)  -->
<!DOCTYPE svg PUBLIC "-//W3C//DTD SVG 1.0//EN" "http://www.w3.org/TR/2001/REC-SVG-20010904/DTD/svg10.dtd">
<svg version="1.0" id="Layer_1" xmlns="http://www.w3.org/2000/svg" xmlns:xlink="http://www.w3.org/1999/xlink" x="0px" y="0px"
	 width="25.731px" height="25.657px" viewBox="0 0 25.731 25.657" style="enable-background:new 0 0 25.731 25.657;"
	 xml:space="preserve">
<g>
	<path d="M19.418,13.031c-3.486,0-6.313,2.826-6.313,6.313s2.826,6.313,6.313,6.313s6.313-2.826,6.313-6.313
		S22.904,13.031,19.418,13.031z M22.901,20.241h-2.61v2.593h-1.758v-2.593h-2.609v-1.793h2.609v-2.592h1.758v2.592h2.61V20.241z"/>
	<path d="M13.23,14.587c-0.151-0.352-0.21-0.891,0.063-1.734h-0.008c1.555-1.625,2.586-4.242,2.586-6.818
		C15.871,2.076,13.433,0,10.419,0C7.402,0,4.981,2.076,4.981,6.035c0,2.586,1.024,5.213,2.588,6.836
		c0.609,1.623-0.48,2.225-0.709,2.311C3.704,16.34,0,18.453,0,20.539c0,0.563,0,0.223,0,0.781c0,2.842,5.427,3.488,10.45,3.488
		c1.102,0,2.216-0.033,3.289-0.111c-1.319-1.4-2.133-3.28-2.133-5.354C11.606,17.552,12.215,15.905,13.23,14.587z"/>
</g>
</svg>
