<?xml version="1.0" encoding="utf-8"?>
<!-- Generator: Adobe Illustrator 17.0.2, SVG Export Plug-In . SVG Version: 6.00 Build 0)  -->
<!DOCTYPE svg PUBLIC "-//W3C//DTD SVG 1.0//EN" "http://www.w3.org/TR/2001/REC-SVG-20010904/DTD/svg10.dtd">
<svg version="1.0" id="Layer_1" xmlns="http://www.w3.org/2000/svg" xmlns:xlink="http://www.w3.org/1999/xlink" x="0px" y="0px"
	 width="26px" height="26px" viewBox="0 0 26 26" style="enable-background:new 0 0 26 26;" xml:space="preserve">
<g>
	<path d="M25.809,9.669L16.332,0.19L9.68,6.841l9.48,9.479L25.809,9.669z M18.621,10.429c-0.613-0.612-2,0.591-2.547,0.044
		c-0.32-0.321-0.359-0.812-0.047-1.463s0.957-1.947,0.605-2.299c-0.353-0.352-1.324,0.172-2.039,0.657
		C14.14,7.676,13.069,8.241,12.6,7.772c-0.37-0.37-0.374-1.104,0.316-1.795c0.004-0.004,3.415-3.417,3.415-3.417l7.109,7.109
		c0,0-1.896,1.897-2.637,2.637c-1.053,1.054-1.809,1.13-2.203,0.735C18.205,12.646,19.234,11.041,18.621,10.429z"/>
	<path d="M15.886,19.593l3.273-3.272L9.68,6.841l-3.273,3.273L15.886,19.593z M17.745,16.321l-1.859,1.858l-8.065-8.065L9.68,8.255
		L17.745,16.321z"/>
	<path d="M7.446,15.893L7.446,15.893c-1.962,1.963-3.959,1.881-5.181,3.104c-1.963,1.963-2.946,5.069-1.64,6.377
		c1.309,1.309,4.415,0.324,6.379-1.637c1.221-1.225,1.881-3.959,3.102-5.181c1.223-1.223,5.779,1.038,5.779,1.038l-9.479-9.479
		C6.407,10.114,8.484,14.855,7.446,15.893z M3.933,23.933c-0.516,0.515-1.351,0.515-1.866,0c-0.516-0.516-0.516-1.352,0-1.867
		c0.516-0.515,1.35-0.515,1.866,0C4.449,22.582,4.449,23.418,3.933,23.933z"/>
</g>
</svg>
