<?xml version="1.0" encoding="UTF-8" standalone="no"?>
<!-- Created with Inkscape (http://www.inkscape.org/) -->

<svg
   xmlns:dc="http://purl.org/dc/elements/1.1/"
   xmlns:cc="http://creativecommons.org/ns#"
   xmlns:rdf="http://www.w3.org/1999/02/22-rdf-syntax-ns#"
   xmlns:svg="http://www.w3.org/2000/svg"
   xmlns="http://www.w3.org/2000/svg"
   version="1.1"
   width="26"
   height="26"
   id="svg5879">
  <defs
     id="defs5881" />
  <metadata
     id="metadata5884">
    <rdf:RDF>
      <cc:Work
         rdf:about="">
        <dc:format>image/svg+xml</dc:format>
        <dc:type
           rdf:resource="http://purl.org/dc/dcmitype/StillImage" />
        <dc:title></dc:title>
      </cc:Work>
    </rdf:RDF>
  </metadata>
  <g
     transform="translate(0,10)"
     id="layer1">
    <g
       transform="translate(0,-4.4065)"
       id="g5705">
      <circle
         cx="19.5"
         cy="12.5"
         r="2.313"
         id="circle5707" />
      <circle
         cx="6.5"
         cy="12.5"
         r="2.313"
         id="circle5709" />
      <path
         d="m 21,5 0,0 C 20.109,5 20.125,5.016 19.227,3.944 18.409,2.968 16.523,0.638 16.523,0.638 16.228,0.278 15.551,0 15,0 H 8 C 7.449,0 6.902,0.278 6.776,0.639 c 0,0 -1.835,2.383 -2.571,3.364 C 3.469,4.984 3.484,5 2.577,5 2,5 1,5 1,5 0.449,5 0,5.449 0,6 v 5 c 0,0.551 0.449,1 1,1 H 2.994 C 3.239,10.277 4.71,8.943 6.5,8.943 c 1.79,0 3.261,1.334 3.506,3.057 h 5.988 c 0.245,-1.723 1.716,-3.057 3.506,-3.057 1.79,0 3.261,1.334 3.506,3.057 H 25 c 0.551,0 1,-0.449 1,-1 V 9 C 26,8.007 24.973,5 21,5 z M 11,5 H 5.848 L 7.915,2.246 C 7.915,2.246 8.211,2 8.344,2 H 11 v 3 z m 2,0 0,0 0,-3 h 1.649 c 0.301,0 0.666,0.177 0.748,0.271 L 17.622,5 H 13 z"
         id="path5711" />
    </g>
  </g>
</svg>
