<?xml version="1.0" encoding="utf-8"?>
<!-- Generator: Adobe Illustrator 17.1.0, SVG Export Plug-In . SVG Version: 6.00 Build 0)  -->
<!DOCTYPE svg PUBLIC "-//W3C//DTD SVG 1.0//EN" "http://www.w3.org/TR/2001/REC-SVG-20010904/DTD/svg10.dtd">
<svg version="1.0" id="Layer_1" xmlns="http://www.w3.org/2000/svg" xmlns:xlink="http://www.w3.org/1999/xlink" x="0px" y="0px"
	 viewBox="0 0 24 24" style="enable-background:new 0 0 24 24;" xml:space="preserve">
<path d="M20,20c0,1.105-0.895,2-2,2c-1.105,0-2-0.895-2-2c0-1.105,0.895-2,2-2C19.105,18,20,18.895,20,20z M7,18
	c-1.105,0-2,0.895-2,2c0,1.105,0.895,2,2,2c1.105,0,2-0.895,2-2S8.105,18,7,18z M17.9,13c0.4,0,0.8-0.2,0.9-0.6l3.1-7
	C22.2,4.7,21.7,4,21,4H6.387L5.721,2H2v2h2.279l2.606,7.819l-1.499,1.999c-0.446,0.624-0.51,1.428-0.166,2.098
	C5.565,16.585,6.247,17,7,17h13v-2H7L8.5,13H17.9z"/>
</svg>
