<?xml version="1.0" encoding="utf-8"?>
<!-- Generator: Adobe Illustrator 17.0.2, SVG Export Plug-In . SVG Version: 6.00 Build 0)  -->
<!DOCTYPE svg PUBLIC "-//W3C//DTD SVG 1.0//EN" "http://www.w3.org/TR/2001/REC-SVG-20010904/DTD/svg10.dtd">
<svg version="1.0" id="Layer_1" xmlns="http://www.w3.org/2000/svg" xmlns:xlink="http://www.w3.org/1999/xlink" x="0px" y="0px"
	 width="26px" height="26px" viewBox="0 0 26 26" style="enable-background:new 0 0 26 26;" xml:space="preserve">
<g>
	<path d="M23.563,4.246C23.837,3.904,24,3.471,24,3V2c0-1.103-0.897-2-2-2h-4c-1.103,0-2,0.897-2,2v1
		c0,0.456,0.159,0.872,0.417,1.209c-0.825,1.263-1.487,3.291-1.908,4.966c0.091,0.047,0.177,0.106,0.252,0.181h0
		c0.2,0.199,0.291,0.468,0.283,0.738c0.409,0.153,0.775,0.345,1.12,0.556C16.579,8.648,17.68,5.695,18.265,5h3.453
		C22.46,5.9,24,10.268,24,11.911V23c0,0.552-0.448,1-1,1h-6c-0.203,0-0.382-0.076-0.54-0.181c-0.465,0.513-0.98,0.958-1.528,1.344
		C15.471,25.679,16.197,26,17,26h6c1.654,0,3-1.346,3-3V11.911C26,10.913,24.99,6.454,23.563,4.246z M21.979,3H18V2h4L21.979,3z"/>
	<path d="M18,16.579c0-2.682-0.913-4.738-3.459-5.615c0.043,0.496-0.884,1.054-1.372,1.075c0.526,0.132,1.31,0.944,1.988,0.705
		c-0.041,0.493-0.414,1.34-0.864,1.649c-0.763,0.526-2.249,0.509-2.948-0.191c-0.052,0.424,0.042,2.455-1.058,3.116
		c-1.937-0.488-2.164-1.979-2.463-2.777c-0.453,0.171-1.03,0.402-1.548,0.446c-2.09,0.174-3.306-1.09-3.247-1.697
		c0.785-0.234,2.119-0.888,2.455-1.689C5.138,11.483,4.6,11.212,4.6,10.554C1.078,11.36,0,14.08,0,17.478
		C0,21.934,4.028,26,9.001,26C13.403,26,18,23.029,18,16.579z"/>
	<path d="M8.312,11.344c-2.546-0.211-2.138,1.836-3.987,2.205c2.357,0.97,3.789-0.092,4.428-1.808
		c-0.1,0.67-0.867,3.012,1.323,4.327c0.527-1.694,0.273-2.926-0.457-4.367c0.011-0.003,0.026-0.006,0.036-0.01
		c1.076,1.347,2.704,2.857,4.554,1.685c-1.531-0.4-1.282-1.503-3.183-1.832c1.426,0.059,2.055,0.436,3.03-1.478
		c-1.534,0.795-2.401-0.774-4.299,0.906c0.068-0.635,0.326-1.841,1.331-2.734c-0.36-0.293-0.74-0.136-0.74-0.136
		s-1.205,1.225-1.641,2.715c-1.423-2.145-3.139-0.285-3.824-2.053C4.883,11.537,7.658,10.885,8.312,11.344z"/>
</g>
</svg>
