<?xml version="1.0" ?><!DOCTYPE svg  PUBLIC '-//W3C//DTD SVG 1.1//EN'  'http://www.w3.org/Graphics/SVG/1.1/DTD/svg11.dtd'><svg enable-background="new 0 0 56.693 56.693" height="56.693px" id="Layer_1" version="1.1" viewBox="0 0 56.693 56.693" width="56.693px" xml:space="preserve" xmlns="http://www.w3.org/2000/svg" xmlns:xlink="http://www.w3.org/1999/xlink"><g><path d="M33.619,31.814H15.707c-0.335,0-0.607,0.272-0.607,0.607c0,0.334,0.272,0.605,0.607,0.605h17.912   c0.337,0,0.607-0.271,0.607-0.605C34.226,32.086,33.956,31.814,33.619,31.814z" fill="#474A56"/><path d="M33.619,43.634H15.707c-0.335,0-0.607,0.271-0.607,0.607c0,0.334,0.272,0.606,0.607,0.606h17.912   c0.337,0,0.607-0.272,0.607-0.606C34.226,43.905,33.956,43.634,33.619,43.634z" fill="#474A56"/><path d="M33.619,37.752H15.707c-0.335,0-0.607,0.272-0.607,0.607c0,0.334,0.272,0.605,0.607,0.605h17.912   c0.337,0,0.607-0.271,0.607-0.605C34.226,38.024,33.956,37.752,33.619,37.752z" fill="#474A56"/><path d="M15.707,27.059h7.167c0.336,0,0.606-0.271,0.606-0.605c0-0.335-0.27-0.607-0.606-0.607h-7.167   c-0.335,0-0.607,0.271-0.607,0.607C15.1,26.788,15.372,27.059,15.707,27.059z" fill="#474A56"/><path d="M35.185,13.489c-0.283-0.279-0.665-0.436-1.063-0.436H8.98c-0.837,0-1.515,0.678-1.515,1.515v38.533   c0,0.837,0.678,1.516,1.515,1.516h31.493c0.839,0,1.517-0.678,1.517-1.516V20.829c0-0.405-0.163-0.794-0.452-1.079L35.185,13.489z    M38.959,51.586H10.495V16.083h22.718v4.76c0,0.501,0.406,0.908,0.909,0.908h4.837V51.586z" fill="#474A56"/><path d="M49.841,11.403l-6.352-6.261c-0.283-0.279-0.665-0.435-1.063-0.435H17.283   c-0.837,0-1.515,0.678-1.515,1.515v3.458h3.03V7.736h22.718v4.76c0,0.502,0.406,0.908,0.909,0.908h4.837v29.834h-1.9v3.031h3.413   c0.839,0,1.517-0.678,1.517-1.516V12.481C50.293,12.076,50.129,11.687,49.841,11.403z" fill="#474A56"/></g></svg>