<?xml version="1.0" encoding="UTF-8" standalone="no"?>
<!-- Created with Inkscape (http://www.inkscape.org/) -->

<svg
   xmlns:dc="http://purl.org/dc/elements/1.1/"
   xmlns:cc="http://creativecommons.org/ns#"
   xmlns:rdf="http://www.w3.org/1999/02/22-rdf-syntax-ns#"
   xmlns:svg="http://www.w3.org/2000/svg"
   xmlns="http://www.w3.org/2000/svg"
   version="1.1"
   width="26"
   height="26"
   viewBox="0 0 26 26"
   id="svg8816"
   xml:space="preserve"><metadata
   id="metadata8823"><rdf:RDF><cc:Work
       rdf:about=""><dc:format>image/svg+xml</dc:format><dc:type
         rdf:resource="http://purl.org/dc/dcmitype/StillImage" /><dc:title></dc:title></cc:Work></rdf:RDF></metadata><defs
   id="defs8821" />
<path
   d="M 13,2.52427 C 18.78948,2.52427 23.47573,7.20951 23.47573,13 23.47573,18.78954 18.79049,23.47573 13,23.47573 7.21065,23.47573 2.52427,18.79049 2.52427,13 2.52427,7.21052 7.20957,2.52427 13,2.52427 M 13,0 C 5.82028,0 0,5.82028 0,13 0,20.17972 5.82028,26 13,26 20.17972,26 26,20.17972 26,13 26,5.82028 20.17972,0 13,0 l 0,0 z m 1.14167,18.78891 v 1.43991 h -2.06013 v -1.28788 c -0.98882,-0.0846 -2.2945,-0.44308 -3.25656,-0.97305 l 0.68168,-2.3742 c 1.08941,0.4249 2.67888,0.95922 3.85425,0.70263 1.02813,-0.22422 1.28719,-1.14728 0.0772,-1.66873 -1.02201,-0.45892 -4.53915,-0.93872 -4.53915,-3.88019 0,-1.21859 0.91341,-2.89338 3.18261,-3.38871 v -1.4613 h 2.06012 v 1.34102 c 0.88286,0.0607 1.78346,0.22372 2.82346,0.54891 -0.10406,0.45436 -0.55357,2.42633 -0.55357,2.42633 C 15.69342,9.96923 14.51957,9.542 13.39255,9.60536 c -1.39245,0.0782 -1.49223,1.09515 -0.55351,1.56467 1.9257,0.87081 4.71471,1.61137 4.71471,4.20853 0.003,2.00711 -1.56101,3.1501 -3.41212,3.41035 z"
   id="coin-2-icon" />
</svg>