<?xml version="1.0" encoding="utf-8"?>
<!-- Generator: Adobe Illustrator 17.0.2, SVG Export Plug-In . SVG Version: 6.00 Build 0)  -->
<!DOCTYPE svg PUBLIC "-//W3C//DTD SVG 1.0//EN" "http://www.w3.org/TR/2001/REC-SVG-20010904/DTD/svg10.dtd">
<svg version="1.0" id="Layer_1" xmlns="http://www.w3.org/2000/svg" xmlns:xlink="http://www.w3.org/1999/xlink" x="0px" y="0px"
	 width="26px" height="26px" viewBox="0 0 26 26" style="enable-background:new 0 0 26 26;" xml:space="preserve">
<g>
	<path d="M25.639,23.784l-2.486-2.486c-0.312-0.312-0.777-0.357-1.148-0.161l-0.208-0.208C22.548,19.988,23,18.798,23,17.5
		c0-3.038-2.462-5.5-5.5-5.5c-3.038,0-5.5,2.462-5.5,5.5c0,3.038,2.462,5.5,5.5,5.5c1.297,0,2.487-0.452,3.427-1.203l0.209,0.209
		c-0.194,0.371-0.149,0.835,0.163,1.147l2.485,2.485c0.384,0.384,1.007,0.384,1.391,0l0.464-0.463
		C26.023,24.791,26.023,24.168,25.639,23.784z M13.5,17.5c0-2.21,1.79-4,4-4c2.21,0,4,1.79,4,4c0,2.21-1.79,4-4,4
		C15.29,21.5,13.5,19.71,13.5,17.5z"/>
	<path d="M11,17.5L11,17.5c0-1.619,0.596-3.097,1.575-4.235c0.022-0.23,0.064-0.482,0.163-0.787H12.73
		c1.49-1.558,2.628-4.067,2.628-6.535c0-3.797-2.486-5.786-5.374-5.786c-2.89,0-5.362,1.99-5.362,5.786
		c0,2.479,1.132,4.997,2.631,6.552c0.584,1.556-0.46,2.134-0.679,2.215C3.549,15.82,0,17.846,0,19.845c0,0.54,0,0.213,0,0.749
		c0,2.724,5.2,3.344,10.012,3.344c1.804,0,3.652-0.087,5.259-0.338C12.781,22.689,11,20.306,11,17.5z"/>
</g>
</svg>
