<?xml version="1.0" encoding="utf-8"?>
<!-- Generator: Adobe Illustrator 17.0.2, SVG Export Plug-In . SVG Version: 6.00 Build 0)  -->
<!DOCTYPE svg PUBLIC "-//W3C//DTD SVG 1.0//EN" "http://www.w3.org/TR/2001/REC-SVG-20010904/DTD/svg10.dtd">
<svg version="1.0" id="Layer_1" xmlns="http://www.w3.org/2000/svg" xmlns:xlink="http://www.w3.org/1999/xlink" x="0px" y="0px"
	 width="24px" height="24px" viewBox="0 0 24 24" style="enable-background:new 0 0 24 24;" xml:space="preserve">
<path d="M21.2,3.7c-0.8-1.1-1.9-1.9-3.1-2.3l-2.8-0.9c-0.02,0-0.086,0.103-0.191,0.263l0.098-0.218C15.158,0.522,13.986,0,12,0
	c-1.899,0-3.043,0.473-3.183,0.535C8.807,0.513,8.8,0.5,8.8,0.5L6,1.4C4.7,1.8,3.6,2.6,2.8,3.7L0,9l3.4,2.1l1.6-3V23
	c0,0.552,3.134,1,7,1s7-0.448,7-1V8.1l1.6,3L24,9L21.2,3.7z M12,1c1.394,0,2.322,0.283,2.652,0.402C14.092,2.118,13.189,3,12,3
	c-1.192,0-2.097-0.887-2.636-1.604C9.711,1.273,10.632,1,12,1z"/>
</svg>
