<?xml version="1.0" encoding="utf-8"?>
<!-- Generator: Adobe Illustrator 17.0.2, SVG Export Plug-In . SVG Version: 6.00 Build 0)  -->
<!DOCTYPE svg PUBLIC "-//W3C//DTD SVG 1.0//EN" "http://www.w3.org/TR/2001/REC-SVG-20010904/DTD/svg10.dtd">
<svg version="1.0" id="Layer_1" xmlns="http://www.w3.org/2000/svg" xmlns:xlink="http://www.w3.org/1999/xlink" x="0px" y="0px"
	 width="26px" height="26px" viewBox="0 0 26 26" style="enable-background:new 0 0 26 26;" xml:space="preserve">
<g>
	<circle cx="13" cy="8.313" r="1.513"/>
	<ellipse transform="matrix(0.2319 -0.9727 0.9727 0.2319 -7.9855 33.9208)" cx="17.487" cy="22.017" rx="3.948" ry="3.394"/>
	<path d="M23.751,13.688c-0.839-0.431-4.342-2.283-5.454-2.871C18.744,9.976,19,9.018,19,8c0-0.439-0.05-0.867-0.14-1.279
		c1.282-0.539,2.148-1.801,2.148-3.22c0-1.156-0.747-1.845-1.33-2.384L19.54,0.989c-0.47-0.44-1.055-0.988-2.032-0.988
		c-1.408,0-2.674,0.867-3.215,2.143C13.876,2.052,13.445,2,13,2c-0.444,0-0.876,0.052-1.293,0.143
		C11.165,0.868,9.9,0.001,8.492,0.001c-0.979,0-1.565,0.55-2.037,0.991L6.289,1.147C5.741,1.652,4.991,2.343,4.991,3.501
		c0,1.419,0.867,2.681,2.148,3.22C7.05,7.134,7,7.561,7,8c0,1.018,0.256,1.976,0.703,2.817c-1.112,0.588-4.615,2.44-5.454,2.871
		c-0.881,0.452-1.591,1.195-1.062,2.359c0.536,1.179,1.662,0.971,2.297,0.734c0.899-0.335,3.724-1.531,3.724-1.531l-0.207,1.771
		c0,0,1.564-0.313,2.94,0.344c0.187-1.345,1.626-2.283,3.059-2.283s2.872,0.938,3.059,2.283c1.376-0.657,2.94-0.344,2.94-0.344
		l-0.207-1.771c0,0,2.825,1.196,3.724,1.531c0.635,0.237,1.761,0.445,2.297-0.734C25.342,14.883,24.632,14.14,23.751,13.688z
		 M17.508,2.001c0.161,0,0.255,0.063,0.666,0.448l0.185,0.172c0.462,0.426,0.649,0.625,0.649,0.88c0,0.599-0.369,1.119-0.904,1.356
		c-0.49-0.794-1.158-1.463-1.951-1.954C16.39,2.369,16.913,2.001,17.508,2.001z M16.6,9.2c0,1.988-1.612,3.6-3.6,3.6
		s-3.6-1.612-3.6-3.6c0-1.988,1.612-3.6,3.6-3.6S16.6,7.212,16.6,9.2z M6.991,3.501c0-0.256,0.189-0.455,0.688-0.915l0.145-0.135
		c0.414-0.388,0.507-0.451,0.669-0.451c0.594,0,1.117,0.368,1.355,0.901C9.054,3.394,8.386,4.063,7.896,4.857
		C7.36,4.621,6.991,4.101,6.991,3.501z"/>
	<ellipse transform="matrix(-0.2319 -0.9727 0.9727 -0.2319 -10.9345 35.404)" cx="8.511" cy="22.019" rx="3.948" ry="3.394"/>
</g>
</svg>
