<?xml version="1.0" encoding="utf-8"?>
<!-- Generator: Adobe Illustrator 17.0.2, SVG Export Plug-In . SVG Version: 6.00 Build 0)  -->
<!DOCTYPE svg PUBLIC "-//W3C//DTD SVG 1.0//EN" "http://www.w3.org/TR/2001/REC-SVG-20010904/DTD/svg10.dtd">
<svg version="1.0" id="Layer_1" xmlns="http://www.w3.org/2000/svg" xmlns:xlink="http://www.w3.org/1999/xlink" x="0px" y="0px"
	 width="17px" height="26px" viewBox="0 0 17 26" style="enable-background:new 0 0 17 26;" xml:space="preserve">
<g>
	<path d="M9.569,9.24c0.252-0.324,0.444-0.782,0.375-1.25C9.532,8.017,9.048,8.281,8.766,8.624C8.51,8.934,8.298,9.395,8.381,9.845
		C8.832,9.857,9.299,9.588,9.569,9.24z"/>
	<path d="M11.578,10.576c-0.397-0.495-0.955-0.783-1.48-0.783c-0.695,0-0.99,0.331-1.473,0.331c-0.498,0-0.875-0.329-1.477-0.329
		c-0.591,0-1.22,0.359-1.618,0.973c-0.562,0.862-0.466,2.487,0.442,3.872c0.326,0.494,0.76,1.051,1.328,1.056
		c0.504,0.006,0.647-0.321,1.332-0.325c0.685-0.004,0.814,0.329,1.319,0.324c0.567-0.005,1.026-0.621,1.351-1.116
		c0.232-0.355,0.319-0.535,0.5-0.936C10.487,13.146,10.277,11.288,11.578,10.576z"/>
	<path d="M14,0H3C1.343,0,0,1.344,0,3v20c0,1.656,1.343,3,3,3h11c1.657,0,3-1.344,3-3V3C17,1.344,15.657,0,14,0z M7.5,1h2
		C9.776,1,10,1.224,10,1.5S9.776,2,9.5,2h-2C7.224,2,7,1.776,7,1.5S7.224,1,7.5,1z M8.5,24.778c-0.706,0-1.278-0.572-1.278-1.278
		s0.572-1.278,1.278-1.278s1.278,0.572,1.278,1.278S9.206,24.778,8.5,24.778z M15,20.5c0,0.276-0.224,0.5-0.5,0.5h-12
		C2.224,21,2,20.776,2,20.5v-17C2,3.224,2.224,3,2.5,3h12C14.776,3,15,3.224,15,3.5V20.5z"/>
</g>
</svg>
