<?xml version="1.0" encoding="utf-8"?>
<!-- Generator: Adobe Illustrator 17.0.2, SVG Export Plug-In . SVG Version: 6.00 Build 0)  -->
<!DOCTYPE svg PUBLIC "-//W3C//DTD SVG 1.0//EN" "http://www.w3.org/TR/2001/REC-SVG-20010904/DTD/svg10.dtd">
<svg version="1.0" id="Layer_1" xmlns="http://www.w3.org/2000/svg" xmlns:xlink="http://www.w3.org/1999/xlink" x="0px" y="0px"
	 width="26px" height="26px" viewBox="0 0 26 26" style="enable-background:new 0 0 26 26;" xml:space="preserve">
<g>
	<path d="M7.573,8h2.188c0,0-5.277-2.308-3.647-4.287C6.803,2.876,7.37,2.712,8.278,3.301c0.928,0.601,2.154,1.509,2.941,2.103
		C11.09,5.572,11,5.772,11,6v1c0,0.551,0.449,1,1,1h2c0.551,0,1-0.449,1-1V6c0-0.228-0.09-0.428-0.219-0.596
		c0.787-0.594,2.013-1.501,2.941-2.103c0.908-0.589,1.475-0.425,2.164,0.412C21.516,5.692,16.239,8,16.239,8h2.188
		c1.034,0,7.469-2.396,2.781-7.083c-1.305-1.305-2.385-0.92-3.046-0.091c-1.305,1.635-2.745,3.421-3.543,4.408
		C14.447,5.095,14.238,5,14,5h-2c-0.238,0-0.447,0.095-0.619,0.234c-0.798-0.987-2.238-2.773-3.543-4.408
		C7.177-0.003,6.097-0.388,4.792,0.917C0.104,5.604,6.539,8,7.573,8z"/>
	<path d="M24,9h-6h-3h-4H7H2c-0.551,0-1,0.449-1,1v3c0,0.551,0.449,1,1,1h9v-4h4v4h9c0.551,0,1-0.449,1-1v-3C25,9.449,24.551,9,24,9
		z"/>
	<path d="M22,15h-4h-3h-4H7H4c-0.551,0-1,0.449-1,1v9c0,0.551,0.449,1,1,1h7V16h4v10h7c0.551,0,1-0.449,1-1v-9
		C23,15.449,22.551,15,22,15z"/>
</g>
</svg>
