<?xml version="1.0" encoding="UTF-8" standalone="no"?>
<!-- Created with Inkscape (http://www.inkscape.org/) -->

<svg
   xmlns:dc="http://purl.org/dc/elements/1.1/"
   xmlns:cc="http://creativecommons.org/ns#"
   xmlns:rdf="http://www.w3.org/1999/02/22-rdf-syntax-ns#"
   xmlns:svg="http://www.w3.org/2000/svg"
   xmlns="http://www.w3.org/2000/svg"
   version="1.1"
   width="32"
   height="32"
   id="svg8082">
  <defs
     id="defs8084" />
  <metadata
     id="metadata8087">
    <rdf:RDF>
      <cc:Work
         rdf:about="">
        <dc:format>image/svg+xml</dc:format>
        <dc:type
           rdf:resource="http://purl.org/dc/dcmitype/StillImage" />
        <dc:title></dc:title>
      </cc:Work>
    </rdf:RDF>
  </metadata>
  <g
     id="layer1">
    <path
       d="m 11.927939,12.7866 c 0.06677,-0.1082 0.973222,-1.4972 2.014334,-3.0866002 l 1.892931,-2.8899 1.990843,3.0406 C 18.921011,11.5231 19.824762,12.9121 19.834381,12.9374 c 0.0099,0.026 -1.723007,0.046 -4.005177,0.046 l -4.022669,0 0.121404,-0.1968 0,0 z"
       id="path7772"
       style="fill:#000000;fill-opacity:1;fill-rule:evenodd;stroke:#000000;stroke-width:0.0524708;stroke-opacity:0" />
    <path
       d="M 10.563155,12.0025 C 10.472365,11.7484 9.941076,10.2359 9.382513,8.6413998 l -1.015569,-2.899 3.48542,0 3.48542,0 -0.10113,0.1443 c -0.05562,0.079 -1.07559,1.5728 -2.266598,3.3188 C 11.779049,10.9514 10.787407,12.399 10.766408,12.4223 c -0.021,0.023 -0.112463,-0.1656 -0.203253,-0.4198 z"
       id="path7774"
       style="fill:#000000;fill-opacity:1;fill-rule:evenodd;stroke:#000000;stroke-width:0.0524708;stroke-opacity:0" />
    <path
       d="M 4.330918,11.0551 C 7.368835,6.4562998 7.523726,6.2327998 7.576062,6.3740998 8.180071,8.0042998 9.978616,12.928 9.978616,12.9513 c 0,0.018 -1.55734,0.032 -3.460756,0.032 l -3.460757,0 1.273815,-1.9283 z"
       id="path7776"
       style="fill:#000000;fill-opacity:1;fill-rule:evenodd;stroke:#000000;stroke-width:0.0524708;stroke-opacity:0" />
    <path
       d="m 9.136855,20.1432 -6.11062,-6.1109 3.724369,0.013 3.72437,0.013 2.399973,6.0839 c 1.319986,3.3461 2.393798,6.09 2.38625,6.0976 -0.0075,0.01 -2.763501,-2.7362 -6.124342,-6.0973 l 0,0 z"
       id="path7778"
       style="fill:#000000;fill-opacity:1;fill-rule:evenodd;stroke:#000000;stroke-width:0.0524708;stroke-opacity:0" />
    <path
       d="m 13.965022,20.1579 -2.178913,-6.0989 2.19203,-0.014 c 1.205618,-0.01 3.180886,-0.01 4.389486,0 l 2.197455,0.014 -2.182968,6.0998 c -1.200632,3.3548 -2.19539,6.0993 -2.210572,6.0988 -0.01518,-5e-4 -1.008116,-2.7454 -2.206518,-6.0997 l 0,0 z"
       id="path7780"
       style="fill:#000000;fill-opacity:1;fill-rule:evenodd;stroke:#000000;stroke-width:0.0524708;stroke-opacity:0" />
    <path
       d="m 17.335512,26.1535 c 0.08723,-0.2749 4.522592,-12.0497 4.550993,-12.0817 0.01937,-0.022 1.615372,-0.034 3.546673,-0.026 l 3.511457,0.014 -5.554091,5.8243 c -6.004231,6.2963 -6.092191,6.3874 -6.055032,6.2702 z"
       id="path7782"
       style="fill:#000000;fill-opacity:1;fill-rule:evenodd;stroke:#000000;stroke-width:0.0524708;stroke-opacity:0" />
    <path
       d="m 22.473639,11.6585 c 0.316359,-0.7287 0.969574,-2.2382002 1.451589,-3.3546002 0.647815,-1.5002 0.891359,-2.0134 0.933784,-1.9676 0.03157,0.034 0.85619,1.3606 1.832496,2.9479 C 27.667815,10.8714 28.58072,12.3531 28.720188,12.5767 l 0.253577,0.4067 -3.537663,0 -3.537663,0 0.5752,-1.3249 0,0 z"
       id="path7784"
       style="fill:#000000;fill-opacity:1;fill-rule:evenodd;stroke:#000000;stroke-width:0.0524708;stroke-opacity:0" />
    <path
       d="m 18.767475,9.1412998 c -1.183216,-1.8205 -2.159173,-3.3301 -2.168793,-3.3545 -0.0096,-0.024 1.545387,-0.044 3.455569,-0.044 3.28622,0 3.471149,0 3.437555,0.092 -0.01953,0.051 -0.591347,1.544 -1.270711,3.3188 C 21.541732,10.9284 20.97079,12.3966 20.952334,12.4163 c -0.01846,0.02 -1.001642,-1.4538 -2.184859,-3.2744002 z"
       id="path7786"
       style="fill:#000000;fill-opacity:1;fill-rule:evenodd;stroke:#000000;stroke-width:0.0524708;stroke-opacity:0" />
  </g>
</svg>
