<?xml version="1.0" encoding="utf-8"?>
<!-- Generator: Adobe Illustrator 17.0.2, SVG Export Plug-In . SVG Version: 6.00 Build 0)  -->
<!DOCTYPE svg PUBLIC "-//W3C//DTD SVG 1.0//EN" "http://www.w3.org/TR/2001/REC-SVG-20010904/DTD/svg10.dtd">
<svg version="1.0" id="Layer_1" xmlns="http://www.w3.org/2000/svg" xmlns:xlink="http://www.w3.org/1999/xlink" x="0px" y="0px"
	 width="26px" height="26px" viewBox="0 0 26 26" style="enable-background:new 0 0 26 26;" xml:space="preserve">
<g>
	<path d="M8,0H6C4.343,0,3,1.344,3,3v15c0,1.656,1.343,3,3,3v0.4C6,22.01,5.856,24,4,24s-2-1.99-2-2.6V16.6c0-0.553-0.448-1-1-1
		s-1,0.447-1,1V21.4C0,24.151,1.607,26,4,26s4-1.849,4-4.6V21c1.657,0,3-1.344,3-3V3C11,1.344,9.657,0,8,0z"/>
	<path d="M22,0h-7c-1.657,0-3,1.344-3,3v15c0,1.656,1.343,3,3,3h7c1.657,0,3.891-1.313,3.891-10.5S23.657,0,22,0z M17,16.5
		c0,0.276-0.224,0.5-0.5,0.5h-1c-0.276,0-0.5-0.224-0.5-0.5v-1c0-0.276,0.224-0.5,0.5-0.5h1c0.276,0,0.5,0.224,0.5,0.5V16.5z
		 M17,13.5c0,0.276-0.224,0.5-0.5,0.5h-1c-0.276,0-0.5-0.224-0.5-0.5v-1c0-0.276,0.224-0.5,0.5-0.5h1c0.276,0,0.5,0.224,0.5,0.5
		V13.5z M17,10.5c0,0.276-0.224,0.5-0.5,0.5h-1c-0.276,0-0.5-0.224-0.5-0.5v-1C15,9.224,15.224,9,15.5,9h1C16.776,9,17,9.224,17,9.5
		V10.5z M20,16.5c0,0.276-0.224,0.5-0.5,0.5h-1c-0.276,0-0.5-0.224-0.5-0.5v-1c0-0.276,0.224-0.5,0.5-0.5h1
		c0.276,0,0.5,0.224,0.5,0.5V16.5z M20,13.5c0,0.276-0.224,0.5-0.5,0.5h-1c-0.276,0-0.5-0.224-0.5-0.5v-1c0-0.276,0.224-0.5,0.5-0.5
		h1c0.276,0,0.5,0.224,0.5,0.5V13.5z M20,10.5c0,0.276-0.224,0.5-0.5,0.5h-1c-0.276,0-0.5-0.224-0.5-0.5v-1
		C18,9.224,18.224,9,18.5,9h1C19.776,9,20,9.224,20,9.5V10.5z M23,16.5c0,0.276-0.224,0.5-0.5,0.5h-1c-0.276,0-0.5-0.224-0.5-0.5v-1
		c0-0.276,0.224-0.5,0.5-0.5h1c0.276,0,0.5,0.224,0.5,0.5V16.5z M23,13.5c0,0.276-0.224,0.5-0.5,0.5h-1c-0.276,0-0.5-0.224-0.5-0.5
		v-1c0-0.276,0.224-0.5,0.5-0.5h1c0.276,0,0.5,0.224,0.5,0.5V13.5z M23,10.5c0,0.276-0.224,0.5-0.5,0.5h-1
		c-0.276,0-0.5-0.224-0.5-0.5v-1C21,9.224,21.224,9,21.5,9h1C22.776,9,23,9.224,23,9.5V10.5z M23,6.5C23,6.776,22.776,7,22.5,7h-7
		C15.224,7,15,6.776,15,6.5v-3C15,3.224,15.224,3,15.5,3h7C22.776,3,23,3.224,23,3.5V6.5z"/>
</g>
</svg>
