<?xml version="1.0" encoding="utf-8"?>
<!-- Generator: Adobe Illustrator 17.0.2, SVG Export Plug-In . SVG Version: 6.00 Build 0)  -->
<!DOCTYPE svg PUBLIC "-//W3C//DTD SVG 1.0//EN" "http://www.w3.org/TR/2001/REC-SVG-20010904/DTD/svg10.dtd">
<svg version="1.0" id="Layer_1" xmlns="http://www.w3.org/2000/svg" xmlns:xlink="http://www.w3.org/1999/xlink" x="0px" y="0px"
	 width="26px" height="26px" viewBox="0 0 26 26" style="enable-background:new 0 0 26 26;" xml:space="preserve">
<g>
	<path d="M22.993,6.955c-0.002-0.05-0.012-0.099-0.022-0.148c-0.01-0.049-0.019-0.097-0.036-0.143
		c-0.005-0.015-0.005-0.031-0.011-0.045c-0.012-0.03-0.034-0.053-0.049-0.081c-0.024-0.045-0.048-0.089-0.078-0.13
		c-0.029-0.039-0.062-0.073-0.096-0.107c-0.034-0.034-0.068-0.067-0.107-0.096c-0.041-0.03-0.085-0.054-0.13-0.078
		c-0.028-0.015-0.051-0.036-0.081-0.049c-0.015-0.006-0.031-0.006-0.046-0.011c-0.047-0.017-0.095-0.026-0.144-0.036
		c-0.049-0.01-0.098-0.02-0.148-0.022C22.03,6.006,22.016,6,22,6H8.669C8.462,6,8.261,6.064,8.092,6.183l-5.658,3.992
		c-0.025,0.018-0.05,0.037-0.074,0.056c-0.064,0.054-0.121,0.115-0.169,0.181c-0.105,0.145-0.173,0.319-0.188,0.508
		C2,10.951,2,10.981,2,11.012V25c0,0.553,0.448,1,1,1h15c0.147,0,0.285-0.036,0.411-0.093c0.034-0.015,0.06-0.043,0.092-0.062
		c0.089-0.053,0.171-0.112,0.24-0.189c0.012-0.013,0.029-0.018,0.04-0.031l4-5C22.923,20.447,23,20.228,23,20V7
		C23,6.984,22.994,6.97,22.993,6.955z M8.986,8h3.736l-2.4,2h-4.17L8.986,8z M4,12h13v12H4V12z M17.586,10h-4.764l2.399-2h4.365
		L17.586,10z"/>
	<path d="M13,13H8c-0.552,0-1,0.447-1,1s0.448,1,1,1h5c0.553,0,1-0.447,1-1S13.553,13,13,13z"/>
</g>
</svg>
