<?xml version="1.0" encoding="utf-8"?>
<!-- Generator: Adobe Illustrator 17.1.0, SVG Export Plug-In . SVG Version: 6.00 Build 0)  -->
<!DOCTYPE svg PUBLIC "-//W3C//DTD SVG 1.0//EN" "http://www.w3.org/TR/2001/REC-SVG-20010904/DTD/svg10.dtd">
<svg version="1.0" id="Layer_1" xmlns="http://www.w3.org/2000/svg" xmlns:xlink="http://www.w3.org/1999/xlink" x="0px" y="0px"
	 viewBox="0 0 24 18" style="enable-background:new 0 0 24 18;" xml:space="preserve">
<path d="M6.5,0c0.6,2.1,6.1,16.3,7.5,18c0,0-4.6-1.4-5.5-1.7c-0.8-0.2-2.6-8.1-2.6-8.1s-1.8,6.4-2.4,6.4C2.8,14.4,0,13.5,0,13.5
	C0.001,13.499,5.7,3,6.5,0z M0,13.5L0,13.5L0,13.5L0,13.5z M18,0.5L18,0.5C16.3,1.1,10.7,1.4,7.4,0c1.9,5.5,6.2,16.3,7.6,18
	c0,0,6.8-1.4,9-3.5C22.4,11.6,18.8,3.5,18,0.5z"/>
</svg>
