<?xml version="1.0" encoding="utf-8"?>
<!-- Generator: Adobe Illustrator 17.1.0, SVG Export Plug-In . SVG Version: 6.00 Build 0)  -->
<!DOCTYPE svg PUBLIC "-//W3C//DTD SVG 1.0//EN" "http://www.w3.org/TR/2001/REC-SVG-20010904/DTD/svg10.dtd">
<svg version="1.0" id="Layer_1" xmlns="http://www.w3.org/2000/svg" xmlns:xlink="http://www.w3.org/1999/xlink" x="0px" y="0px"
	 viewBox="0 0 26 26" style="enable-background:new 0 0 26 26;" xml:space="preserve">
<path d="M5.485,6.078c0-1.945,1.056-4.388,3.326-4.388c1.334,0,2.611,1.778,2.611,3.738c0,2.74-0.557,5.625-2.717,5.625
	C6.813,11.053,5.484,7.76,5.485,6.078z M17.152,11.053c2.355,0,3.65-2.885,3.65-5.625c0-2.739-1.73-4.086-2.836-4.086
	c-2.404,0-3.654,2.5-3.654,4.184C14.313,7.207,14.975,11.053,17.152,11.053z M17.152,11.053L17.152,11.053L17.152,11.053
	L17.152,11.053z M3.386,10.162c-1.423,0-3.181,2.238-3.181,4.648c0,1.578,1.25,3.953,3.08,3.953
	c1.778,0.001,3.024-2.427,3.024-4.997C6.309,11.928,4.81,10.162,3.386,10.162z M17.534,18.744c-1.587-1.971-2.308-4.326-4.519-4.326
	c-1.959,0-2.977,2.045-4.729,3.899s-3.4,2.206-3.4,4.369c0,1.134,0.822,2.645,2.889,2.645c2.268,0,3.371-1.01,5.432-1.01
	c2.061,0,3.674,0.694,5.529,0.694c2.211,0,3.258-0.824,3.258-2.576C21.994,20.331,18.908,20.451,17.534,18.744z M24.214,10.183
	c-1.384-0.32-2.856,0.931-4.128,3.291c-1.469,2.729-0.646,4.813,1.135,5.225c1.729,0.403,3.414-1.338,4.334-3.757
	C26.279,13.029,25.599,10.507,24.214,10.183z"/>
</svg>
