<?xml version="1.0" encoding="utf-8"?>
<!-- Generator: Adobe Illustrator 17.0.2, SVG Export Plug-In . SVG Version: 6.00 Build 0)  -->
<!DOCTYPE svg PUBLIC "-//W3C//DTD SVG 1.0//EN" "http://www.w3.org/TR/2001/REC-SVG-20010904/DTD/svg10.dtd">
<svg version="1.0" id="Layer_1" xmlns="http://www.w3.org/2000/svg" xmlns:xlink="http://www.w3.org/1999/xlink" x="0px" y="0px"
	 width="24px" height="24px" viewBox="0 0 24 24" style="enable-background:new 0 0 24 24;" xml:space="preserve">
<path d="M23.714,20.249l-4.524-4.526c-0.399-0.398-1.119-0.36-1.842,0.016l-2.094-2.093C16.345,12.217,17,10.437,17,8.5
	C17,3.806,13.194,0,8.5,0C3.806,0,0,3.806,0,8.5C0,13.194,3.806,17,8.5,17c1.937,0,3.717-0.656,5.147-1.747l2.094,2.093
	c-0.376,0.725-0.415,1.445-0.017,1.843l4.525,4.526c0.571,0.571,1.812,0.257,2.768-0.7C23.973,22.06,24.286,20.82,23.714,20.249z
	 M8.5,15C4.91,15,2,12.09,2,8.5S4.91,2,8.5,2S15,4.91,15,8.5S12.09,15,8.5,15z"/>
</svg>
