<?xml version="1.0" encoding="utf-8"?>
<!-- Generator: Adobe Illustrator 17.0.2, SVG Export Plug-In . SVG Version: 6.00 Build 0)  -->
<!DOCTYPE svg PUBLIC "-//W3C//DTD SVG 1.0//EN" "http://www.w3.org/TR/2001/REC-SVG-20010904/DTD/svg10.dtd">
<svg version="1.0" id="Layer_1" xmlns="http://www.w3.org/2000/svg" xmlns:xlink="http://www.w3.org/1999/xlink" x="0px" y="0px"
	 width="20px" height="26px" viewBox="0 0 20 26" style="enable-background:new 0 0 20 26;" xml:space="preserve">
<path d="M17.398,12.241c0.637-0.802,1.174-1.706,1.593-2.692c0.025-0.058,0.049-0.115,0.073-0.173
	c0.092-0.227,0.178-0.457,0.258-0.691c0.018-0.054,0.035-0.109,0.052-0.163c0.256-0.792,0.438-1.622,0.535-2.485
	C19.91,6.024,19.913,6.012,19.914,6h0C19.965,5.531,20,5.056,20,4.571C20,2.945,19.698,1.4,19.162,0H0.838
	C0.302,1.4,0,2.945,0,4.571C0,9.221,2.435,13.215,5.923,15H5.906C5.906,15,9,16.458,9,18.5c0,1.828,0,2.844,0,3.5
	c0,2-5.984,3.016-4.787,4h11.575C16.984,25.047,11,24,11,22h0c0-0.67,0-1.678,0-3.5c0-2.042,3.094-3.5,3.094-3.5h-0.017
	c0.021-0.011,0.041-0.023,0.062-0.034c0.084-0.044,0.166-0.091,0.249-0.137c0.177-0.099,0.352-0.198,0.523-0.309
	c0.019-0.012,0.037-0.026,0.056-0.039c0.405-0.266,0.79-0.563,1.157-0.889c0.026-0.023,0.053-0.044,0.079-0.068
	c0.163-0.147,0.318-0.303,0.472-0.461c0.054-0.055,0.108-0.11,0.161-0.167c0.149-0.16,0.294-0.324,0.434-0.494
	C17.313,12.35,17.355,12.295,17.398,12.241z M2,4.571C2,3.694,2.103,2.834,2.305,2h15.389C17.897,2.834,18,3.694,18,4.571
	C18,5.058,17.959,5.533,17.898,6H4.086c0.343,3.137,1.802,5.872,3.903,7.686C4.55,12.631,2,8.951,2,4.571z"/>
</svg>
