<?xml version="1.0" encoding="UTF-8" standalone="no"?>
<!-- Created with Inkscape (http://www.inkscape.org/) -->

<svg
   xmlns:dc="http://purl.org/dc/elements/1.1/"
   xmlns:cc="http://creativecommons.org/ns#"
   xmlns:rdf="http://www.w3.org/1999/02/22-rdf-syntax-ns#"
   xmlns:svg="http://www.w3.org/2000/svg"
   xmlns="http://www.w3.org/2000/svg"
   version="1.0"
   width="26"
   height="26"
   viewBox="0 0 26.000001 26.000001"
   id="Layer_1"
   xml:space="preserve"><metadata
   id="metadata8768"><rdf:RDF><cc:Work
       rdf:about=""><dc:format>image/svg+xml</dc:format><dc:type
         rdf:resource="http://purl.org/dc/dcmitype/StillImage" /><dc:title></dc:title></cc:Work></rdf:RDF></metadata><defs
   id="defs8766" />
<path
   d="M 24.497134,1.5028678 C 21.798276,-1.1959896 12.190344,-0.54826386 5.8210398,5.8210398 -0.54826384,12.190344 -1.1959896,21.798276 1.5028678,24.497134 4.2017253,27.195991 13.809658,26.548265 20.178962,20.178962 26.548265,13.809658 27.195991,4.093771 24.497134,1.5028678 z M 2.2585479,23.741454 6.5767199,18.343739 7.6562628,19.423282 2.2585479,23.741454 z M 18.88351,12.298298 c -0.215908,0.431817 -0.75568,0.431817 -1.079543,0.107954 v 0 l -1.51136,-1.51136 -2.051132,2.051132 1.511361,1.51136 c 0.323863,0.323863 0.323863,0.863634 0,1.079543 -0.323863,0.323863 -0.863635,0.323863 -1.079543,0 l -1.619315,-1.403406 -2.051132,2.051132 1.511361,1.51136 c 0.323863,0.323863 0.323863,0.863634 0,1.079543 -0.323863,0.323863 -0.863635,0.323863 -1.079543,0 l -1.6193152,-1.403406 -1.079543,1.079543 -1.079543,-1.187497 1.079543,-1.079543 -1.5113602,-1.51136 c -0.3238629,-0.323863 -0.3238629,-0.863635 0,-1.079543 0.3238629,-0.323863 0.8636344,-0.323863 1.079543,0 l 1.5113602,1.403406 2.0511322,-2.051132 -1.511361,-1.51136 c -0.323863,-0.323863 -0.323863,-0.863635 0,-1.079543 0.323863,-0.323863 0.863635,-0.323863 1.079544,0 l 1.51136,1.51136 2.159086,-2.1590864 -1.51136,-1.5113603 c -0.323863,-0.3238629 -0.323863,-0.8636344 0,-1.079543 0.323863,-0.3238629 0.863634,-0.3238629 1.079543,0 l 1.619314,1.4034059 1.079543,-1.079543 1.079543,1.1874973 -1.079543,1.0795431 1.51136,1.5113604 c 0.323863,0.323863 0.323863,0.863634 0,1.079543 z m 0.647726,-4.7499895 0,0 -1.079543,-1.0795429 5.397715,-4.318172 -4.318172,5.3977149 z"
   id="path8762" />
</svg>