<?xml version="1.0" encoding="UTF-8" standalone="no"?>
<!-- Created with Inkscape (http://www.inkscape.org/) -->

<svg
   xmlns:dc="http://purl.org/dc/elements/1.1/"
   xmlns:cc="http://creativecommons.org/ns#"
   xmlns:rdf="http://www.w3.org/1999/02/22-rdf-syntax-ns#"
   xmlns:svg="http://www.w3.org/2000/svg"
   xmlns="http://www.w3.org/2000/svg"
   version="1.1"
   width="26"
   height="26"
   viewBox="0 0 26 26"
   id="svg8843"
   xml:space="preserve"><metadata
   id="metadata8850"><rdf:RDF><cc:Work
       rdf:about=""><dc:format>image/svg+xml</dc:format><dc:type
         rdf:resource="http://purl.org/dc/dcmitype/StillImage" /><dc:title></dc:title></cc:Work></rdf:RDF></metadata><defs
   id="defs8848" />
<path
   d="m 18.88527,4.34424 1.31873,-1.91921 2.06852,1.428 -1.31276,1.91042 C 20.32025,5.22367 19.6257,4.74685 18.88527,4.34424 z M 11.09737,-4e-5 v 2.99746 c 0.62041,-0.0963 1.25564,-0.14647 1.90257,-0.14647 0.63479,0 1.25846,0.0483 1.86775,0.14094 V -4e-5 H 11.09737 z M 23.789,15.21097 c 0,5.95861 -4.83034,10.78907 -10.78906,10.78907 -5.9586,0 -10.78894,-4.83046 -10.78894,-10.78907 0,-5.95853 4.83034,-10.789 10.78894,-10.789 5.95872,-6e-5 10.78906,4.8304 10.78906,10.789 z m -2.82773,0 c 0,-4.40064 -3.56157,-7.96126 -7.96133,-7.96126 -4.40065,0 -7.96121,3.56156 -7.96121,7.96126 0,4.40065 3.56157,7.96133 7.96121,7.96133 4.40064,0 7.96133,-3.56143 7.96133,-7.96133 z m -5.87107,0.56819 c 0,1.09314 -0.88615,1.97941 -1.97942,1.97941 -1.09313,0 -1.97941,-0.88627 -1.97941,-1.97941 0,-0.71014 0.3742,-1.33262 0.93598,-1.68194 l 0.72421,-5.44225 c 0.0148,-0.12248 0.11758,-0.21541 0.24093,-0.21812 0.12335,-0.003 0.22986,0.0857 0.25003,0.20743 l 0.83764,5.43221 c 0.58069,0.34498 0.97004,0.9782 0.97004,1.70267 z m -1.39898,6.32369 h -1.25677 v -1.6338 h 1.25677 v 1.6338 z m 6.28386,-7.54062 V 15.819 h -1.6338 v -1.25677 h 1.6338 z m -13.82448,0 V 15.819 H 7.7844 V 14.56223 H 6.1506 z m 12.24428,5.07176 -0.88867,0.88866 -1.08164,-1.08164 0.88867,-0.88866 1.08164,1.08164 z M 8.61946,9.85864 7.73074,10.74736 8.81244,11.829 9.7011,10.94028 8.61946,9.85864 z m 8.88675,0 0.88867,0.88872 -1.08164,1.08164 -0.88867,-0.88872 1.08164,-1.08164 z m -9.77547,9.77541 0.88872,0.88867 1.08164,-1.08171 -0.88866,-0.88866 -1.0817,1.0817 z"
   id="time-10-icon" />
</svg>