<?xml version="1.0" encoding="utf-8"?>
<!-- Generator: Adobe Illustrator 17.0.2, SVG Export Plug-In . SVG Version: 6.00 Build 0)  -->
<!DOCTYPE svg PUBLIC "-//W3C//DTD SVG 1.0//EN" "http://www.w3.org/TR/2001/REC-SVG-20010904/DTD/svg10.dtd">
<svg version="1.0" id="Layer_1" xmlns="http://www.w3.org/2000/svg" xmlns:xlink="http://www.w3.org/1999/xlink" x="0px" y="0px"
	 width="26px" height="25.911px" viewBox="0 0 26 25.911" style="enable-background:new 0 0 26 25.911;" xml:space="preserve">
<g>
	<path d="M25,21.094c-0.833,0-2.113-0.228-3-0.926c-0.887,0.698-2.167,0.926-3,0.926c-0.406,0-0.92-0.057-1.442-0.194
		c2.012-0.829,4.308-2.135,6.02-3.974C24.105,16.359,24.184,16,23.23,16H21h0l0,0h-9H2.481C1.929,16,2,16.447,2,17
		c0,1.716,2.758,3.195,5.044,4.091c-0.013,0-0.031,0.003-0.044,0.003c-0.833,0-2.113-0.228-3-0.926
		c-0.887,0.698-2.167,0.926-3,0.926c-0.374,0-0.699-0.033-1-0.08v1.846c0.291,0.031,0.619,0.051,1,0.051c1.734,0,2.369-0.43,3-0.926
		c0.887,0.698,2.167,0.926,3,0.926c0.827,0,2.094-0.227,2.98-0.914C9.984,21.997,9.996,22,10,22c0.006,0,0.018,0,0.025,0
		c0.886,0.684,2.149,0.911,2.975,0.911c0.833,0,2.113-0.228,3-0.926c0.887,0.698,2.167,0.926,3,0.926s2.113-0.228,3-0.926
		c0.887,0.698,2.167,0.926,3,0.926c0.414,0,0.736-0.063,1-0.15v-1.827C25.732,21.028,25.409,21.094,25,21.094z"/>
	<path d="M22,23.168c-0.887,0.698-2.167,0.926-3,0.926s-2.113-0.228-3-0.926c-0.887,0.698-2.167,0.926-3,0.926s-2.113-0.228-3-0.926
		c-0.887,0.698-2.167,0.926-3,0.926s-2.113-0.228-3-0.926c-0.887,0.698-2.167,0.926-3,0.926c-0.374,0-0.699-0.033-1-0.08v1.846
		c0.291,0.031,0.619,0.051,1,0.051c1.734,0,2.369-0.43,3-0.926c0.887,0.698,2.167,0.926,3,0.926s2.113-0.228,3-0.926
		c0.887,0.698,2.167,0.926,3,0.926s2.113-0.228,3-0.926c0.887,0.698,2.167,0.926,3,0.926s2.113-0.228,3-0.926
		c0.887,0.698,2.167,0.926,3,0.926c0.414,0,0.736-0.063,1-0.15v-1.827c-0.268,0.094-0.591,0.16-1,0.16
		C24.167,24.094,22.887,23.866,22,23.168z"/>
	<path d="M13,14l8,2c0,0,0-6-7-14C16,11,13,14,13,14z"/>
	<path d="M3,13l9,3V0C9,9,3,13,3,13z"/>
</g>
</svg>
