<?xml version="1.0" encoding="utf-8"?>
<!-- Generator: Adobe Illustrator 17.0.2, SVG Export Plug-In . SVG Version: 6.00 Build 0)  -->
<!DOCTYPE svg PUBLIC "-//W3C//DTD SVG 1.0//EN" "http://www.w3.org/TR/2001/REC-SVG-20010904/DTD/svg10.dtd">
<svg version="1.0" id="Layer_1" xmlns="http://www.w3.org/2000/svg" xmlns:xlink="http://www.w3.org/1999/xlink" x="0px" y="0px"
	 width="21.94px" height="25.729px" viewBox="0 0 21.94 25.729" style="enable-background:new 0 0 21.94 25.729;"
	 xml:space="preserve">
<path d="M14.533,15.744L14.533,15.744c-0.159-0.052-1.164-0.505-0.536-2.414h-0.009c1.637-1.686,2.888-4.399,2.888-7.07
	c0-4.107-2.731-6.26-5.905-6.26C7.795,0,5.079,2.152,5.079,6.26c0,2.682,1.244,5.406,2.891,7.088
	c0.642,1.684-0.506,2.309-0.746,2.396C3.9,16.947,0,19.138,0,21.301c0,0.584,0,0.23,0,0.811c0,2.947,5.714,3.617,11.002,3.617
	c5.296,0,10.938-0.67,10.938-3.617c0-0.58,0-0.227,0-0.811C21.94,19.073,18.021,16.899,14.533,15.744z"/>
</svg>
