<?xml version="1.0" encoding="utf-8"?>
<!-- Generator: Adobe Illustrator 17.0.2, SVG Export Plug-In . SVG Version: 6.00 Build 0)  -->
<!DOCTYPE svg PUBLIC "-//W3C//DTD SVG 1.0//EN" "http://www.w3.org/TR/2001/REC-SVG-20010904/DTD/svg10.dtd">
<svg version="1.0" id="Layer_1" xmlns="http://www.w3.org/2000/svg" xmlns:xlink="http://www.w3.org/1999/xlink" x="0px" y="0px"
	 width="26px" height="26px" viewBox="0 0 26 26" style="enable-background:new 0 0 26 26;" xml:space="preserve">
<path d="M15.17,0.106L15.17,0.106L15.17,0.106L15.17,0.106z M24,11.765C23.501,12.385,22.502,13,20.5,13
	c-2.05,0-3.049-0.645-3.536-1.279C16.41,12.354,15.285,13,13,13c-2.293,0-3.418-0.649-3.969-1.285C8.542,12.351,7.542,13,5.5,13
	c-2.005,0-3.001-0.625-3.5-1.25V16h22V11.765z M5.5,12c2.89,0,2.997-1.454,3-1.516c0.014-0.267,0.234-0.479,0.5-0.479
	c0.002,0,0.005,0,0.008,0c0.269,0.004,0.486,0.216,0.492,0.484C9.504,10.54,9.645,12,13,12c3.355,0,3.496-1.46,3.501-1.522
	c0.018-0.27,0.241-0.479,0.517-0.471c0.269,0.01,0.482,0.224,0.482,0.493c0.002,0.053,0.09,1.5,3,1.5
	c3.203,0,3.326-1.967,3.326-1.967C23.422,8.854,22.315,8,21,8h-7.147c0.408-0.398,0.863-0.775,1.307-1.139
	c1.351-1.11,2.753-2.254,2.753-4.023c-0.001-1.608-1.129-2.732-2.743-2.732c-0.93,0-1.733,0.665-2.172,1.124
	c-0.437-0.459-1.239-1.124-2.168-1.124c-1.613,0-2.743,1.124-2.743,2.732c0,1.77,1.401,2.913,2.753,4.023
	C11.284,7.225,11.739,7.602,12.146,8H5c-1.316,0-2.423,0.854-2.827,2.034C2.173,10.034,2.391,12,5.5,12z M22.5,22
	c-2.05,0-4.049-0.645-4.536-1.279C17.41,21.354,15.285,22,13,22c-2.293,0-4.418-0.649-4.969-1.285C7.542,21.351,5.542,22,3.5,22
	c-2.005,0-3.001-0.625-3.5-1.25V24c0,1.656,1.344,2,3,2h20c1.656,0,3-0.344,3-2v-3.235C25.501,21.385,24.502,22,22.5,22z M3.5,21
	c2.89,0,3.997-1.454,4-1.516c0.014-0.267,0.234-0.479,0.5-0.479c0.002,0,0.005,0,0.008,0c0.269,0.004,0.486,0.216,0.492,0.484
	C8.504,19.54,9.645,21,13,21c3.355,0,4.496-1.46,4.501-1.522c0.018-0.27,0.241-0.479,0.517-0.471
	c0.269,0.01,0.482,0.224,0.482,0.493c0.002,0.053,1.09,1.5,4,1.5c3.203,0,3.326-1.967,3.326-1.967C25.422,17.854,24.315,17,23,17H3
	c-1.316,0-2.423,0.854-2.827,2.034C0.173,19.034,0.391,21,3.5,21z"/>
</svg>
